<svg xmlns="http://www.w3.org/2000/svg" viewBox="0 0 2500 856.52"><path d="M386.59,416.43H494.1v151c-33.54,10.77-75.9,16.69-119.93,16.69-178.44,0-283.31-152.81-283.31-302,0-146.37,94.86-249,227.2-249,83.75,0,132.48,28.37,176.07,67.89v49.27l81.75-81.75C524.17,33.48,449.31.24,342.29.24,107.38.24,0,168.3,0,306.42c0,196.59,143.19,315,323.14,315,87.25,0,164.72-13.32,254.21-38.22v-156c0-8,3.5-13.45,8.74-18.25l28.24-28.24H422.57l-36,35.71Z" transform="translate(0 -0.24)"/><path  d="M868.21,211.22c-135.22,0-219,98.81-219,203.68,0,90.52,67.5,198,204.24,198,131.55,0,212.26-99,212.26-205.71,0-99.4-78.88-195.93-197.5-195.93v0ZM845.77,240c95.33,0,137.79,124.2,137.79,212.79,0,131.74-98.84,134.34-110.65,134.34-45.23,0-76.84-27.33-100.5-63.18-20.83-33-41.19-94.43-41.19-154.41,0-59.75,19.56-88.92,50.34-110.38C806.72,243.1,830.29,240,845.74,240Z" transform="translate(0 -0.24)"/><path  d="M1752.1,211.19c-118.1,0-182,74.77-182,158.25,0,63.55,45.53,135.25,139.45,135.25h23.76s-6.47,15.72-6.5,30.9c0,22.4,8,35,25.13,54.34-161.62,9.85-226.57,75-226.57,145.1,0,61.35,58.75,121.73,182.21,121.73,146.16,0,221.86-81.14,221.86-160.78,0-56.14-28-86.92-98.8-140-20.82-16.19-24.86-26.5-24.86-38.61,0-17.36,10.38-28.85,14.18-33.18,6.71-7.08,18.33-15.16,22.67-19,23.79-20.16,57.41-50,57.41-109.55,0-40.85-17-76-55.71-108.91h47.26l35.52-35.51h-175Zm-32.58,26.57c21.43,0,39.32,7.58,58.21,23.3,21,18.89,54.45,69.66,54.45,132.48,0,67.79-52.68,86.35-81.18,86.35a81,81,0,0,1-44.83-13.59c-31.44-20.39-62.65-74.67-62.65-139.25C1643.52,268.77,1678.23,237.76,1719.52,237.76Zm46.77,377.91a150.91,150.91,0,0,1,15.48.74s21.27,15.18,36.12,26.53c34.58,27.33,56.14,48.23,56.14,85.45,0,51.17-47.47,91.29-124.34,91.29-84.37,0-148.86-39.29-148.86-103.44C1600.83,663.1,1645,617.37,1766.29,615.67Z" transform="translate(0 -0.24)"/><path  d="M1952.7,601.18h162.12l24.7-24.69-46.5-5.81c-12.52-1.54-20-12.35-20-22.83V58.15c0-9.64,4.48-14.58,7.74-17.72l29.25-29.24H1971.79l-36,36h53.74V554.42c0,7.21-2.27,12.12-7.14,17.16l-29.71,29.6Z" transform="translate(0 -0.24)"/><path  d="M2334.48,211.22c-90.52,0-186.68,69-186.68,192.86,0,102.3,69,208.82,197.9,208.82,32.14,0,58.61-4.14,83.41-15.52A188.33,188.33,0,0,0,2500,540.24c-35.28,17.79-64.05,29.47-102.27,29.47-72.63,0-142.66-52.4-167.16-148.73l256.58-103.71c-14.82-52.84-56.61-106-152.63-106Zm-16.76,28.34c48.57,0,83.68,40,83.68,71.23,0,10.12-6.34,15.46-18.89,20.4L2224.8,395a222.58,222.58,0,0,1-4.27-41.32c0-90,65.09-114.09,97.19-114.09Z" transform="translate(0 -0.24)"/><path  d="M1327,211.22c-135.21,0-219,98.81-219,203.68,0,90.52,67.49,198,204.24,198,131.55,0,212.25-99,212.25-205.71,0-99.4-78.87-195.93-197.5-195.93v0ZM1304.59,240c95.33,0,137.78,124.2,137.78,212.79,0,131.74-98.83,134.34-110.64,134.34-45.23,0-76.84-27.33-100.5-63.18-20.83-33-41.19-94.43-41.19-154.41,0-59.75,19.56-88.92,50.33-110.38,25.17-16.09,48.74-19.16,64.19-19.16Z" transform="translate(0 -0.24)"/></svg>