<svg id="Capa_1" data-name="Capa 1" xmlns="http://www.w3.org/2000/svg" viewBox="0 0 2426.62 459.68"></defs><path class="cls-1" d="M248.05,342l110-316.75h47.28L356.46,165.12h27.72c28.53,0,43.2,12.23,35.87,36.69S371.14,342,371.14,342H323.05l48.09-137c1.62-8.15,1.62-15.48-8.15-15.48H348.32L294.52,342H248.05Zm292.8-177.71H464.77L355.16,482.78h46.63L450.39,342h43c34.36,0,40.09-13.1,46.63-31.93l35.18-99.89c12.27-33.57-11.47-45.85-34.36-45.85Zm-13.09,36.85S493.4,298.58,492.58,303.5s-4.91,13.92-13.08,13.92H458.86l44.36-128.54h20.45C531,188.88,530.21,194.61,527.76,201.16Z" transform="translate(-36.23 -25.27)"/><path class="cls-1" d="M338.92,441.38C254.12,414.09,193.16,339,193.16,253.92c0-74.78,52.94-150.26,123.62-187.78l14.68-40.86H97.33a61.19,61.19,0,0,0-61.1,61.23V421.34c0,33.77,27.35,61.44,61.1,61.44H324.12l14.8-41.4ZM432.31,25.27H720.14a60.83,60.83,0,0,1,61.25,60.78V421.79a61,61,0,0,1-61,61H430.67L443,445.85c102.7-15.14,181.08-95.31,181.08-191.94,0-104-90.72-188.88-204.85-194.23l13.08-34.41ZM2316.44,304.33H2182.7V484.62h132.92c48.14,0,51.38-46.5,51.38-71.79v-53c0-31.81-16.32-55.47-50.56-55.47Zm9,62v51.4c0,15.49-8.16,29.37-22.83,29.37h-78.3V341.87h81.57C2318.09,341.87,2326.25,354.93,2325.4,366.33Zm-200.12,48.21c9.83-8.2,16.37-20.47,16.37-53.22,0-36.84-25.36-57.3-54.8-57.3H1966.6V484.93h40.91V431.71h70.32c16.37,0,24.56,13.1,24.56,20.47v32.74h39.26V447.26c0-10.63-3.28-26.17-16.37-32.72Zm-42.54-20.47h-75.25V341.68h70.33c20.47,0,24.55,15.54,24.55,24.57s-4.08,27.82-19.63,27.82Zm-229.8-89.7h-53.8L1726.58,459.3v25.28h32.61L1773.86,452h104.19l14.85,32.62h42.41l-82.37-180.21Zm-62,110.09L1826,337.81l34.9,76.65Zm-253.54,70.32V304.19h41.68V372h18l71.05-67.82h55.54l-87.41,85L1709,461.08v23.7h-31l-77.56-75.2h-21.23v75.2Zm-218.85-138v95.31c0,18.73,11.4,42.36,42.36,42.36h99.38c22.8,0,41.52-15.47,41.52-42.36V425.84h-40.71c0,8.14-1.65,21.18-17.13,21.18h-70.85c-4.89,0-13-3.26-13-16.29V359.05s-2.45-16.29,13.83-16.29h71.69c6.51,0,13.82,12.21,14.67,20.35h41.52V347.65c0-15.47-15.45-42.37-41.52-43.18h-100.2c-19.55,0-41.53,22-41.53,42.35ZM1217.7,304h-54l-84.26,180.92h44.17l14.73-32.73h104.52l14.9,32.73h42.55L1217.7,304Zm-62.16,110.52,35.16-77,34.36,77ZM1032.76,304.29H901.39V484.67H943V434.06h89.74c24.48,0,52.22-13.87,52.22-64.48C1085,318.17,1054.78,304.29,1032.76,304.29Zm-9.8,92.23H943V341.84h77.51c20.4,0,20.4,19.6,20.4,27.76s0,26.92-18,26.92ZM901.39,28.22V208.61H943V136.77h108.51v71.84h41.61V28.22h-41.61v71H943v-71Zm401.95-.11H1164.49c-18.8,0-28.59,10.62-28.59,27V185c0,10.62,9.79,23.7,26.13,23.7h141.3V171.15H1177.55V136.83H1282.1V99.24H1177.55V65.73h125.78V28.11Zm335.26.18V181.63c0,13.86,10.61,26.91,29.36,26.91H1790.3V171H1680.21V28.29Zm473.8,180.45V65.7h60.88V28.08H2010.7V65.7h60v143Zm192.67.11V65.62H2366V28H2203.25V65.62h60.11V208.85ZM1980.17,28.19H1841.42c-18.8,0-28.58,10.61-28.58,27V185c0,10.62,9.78,23.68,26.13,23.68h141.21V171.08h-125.7V136.79H1959V99.22H1854.48V65.73h125.7V28.19ZM1524.92,208.92c-12.28,0-24.13-18.42-26.6-27.44l-30.67-94.59-40.11,122h-25.36c-12.28,0-22.93-18.83-25.38-27.83L1326.89,27.93h41.73L1407.1,151.6,1448,28.74h39.26l40.91,122.86,38.46-123.67h41.75l-58.93,181h-24.54ZM2451,38.65a40.41,40.41,0,0,0-69,28.55,39.25,39.25,0,0,0,11.73,28.7,40.38,40.38,0,0,0,57.25,0,39.27,39.27,0,0,0,11.83-28.7A38.89,38.89,0,0,0,2451,38.65ZM2447,92a34.72,34.72,0,0,1-49.24,0,34,34,0,0,1-10.08-24.8,33.62,33.62,0,0,1,10.13-24.63,34.64,34.64,0,0,1,49.2,0,33.62,33.62,0,0,1,10.13,24.63A33.94,33.94,0,0,1,2447,92Z" transform="translate(-36.23 -25.27)"/><path class="cls-1" d="M2440.36,88.73a7.31,7.31,0,0,1-.37-2.32c-.08-1.1-.13-2.2-.13-3.29V79.87a12.21,12.21,0,0,0-2.42-6.88c-1.62-2.35-4.17-3.8-7.68-4.35a16.79,16.79,0,0,0,6.46-2.15q4.35-2.82,4.36-8.77c0-5.58-2.31-9.33-6.89-11.23-2.58-1.07-6.61-1.6-12.14-1.6H2406v44.4h7.84V71.77H2420c4.15,0,7.07.48,8.71,1.42,2.79,1.65,4.18,5.06,4.18,10.2v3.53l.18,1.44.1.49a2.18,2.18,0,0,1,.11.44h7.34l-.3-.56Zm-12-23.41a21,21,0,0,1-7.44,1h-7V50.22h6.66c4.33,0,7.47.55,9.46,1.65s2.94,3.27,2.94,6.5c0,3.42-1.54,5.74-4.58,6.95Z" transform="translate(-36.23 -25.27)"/></svg>