<svg id="Capa_1" data-name="Capa 1" xmlns="http://www.w3.org/2000/svg" viewBox="0 0 2500 533.73"><path class="cls-1" d="M2500,241.58v-44h-54.6V129.27l-1.84.56-51.28,15.69-1,.31v51.79h-80.94V168.77c0-13.44,3-23.72,8.92-30.57s14.29-10.22,25-10.22a58.26,58.26,0,0,1,23.72,5.4l2,.9V88l-1-.35c-7.49-2.7-17.69-4-30.32-4-15.93,0-30.4,3.46-43,10.33a73.54,73.54,0,0,0-29.51,29.18c-6.94,12.47-10.46,26.87-10.46,42.81v31.72h-38v44h38V426.81h54.58V241.58h80.94V359.29c0,48.48,22.87,73,68,73a111.61,111.61,0,0,0,23.18-2.57c8.1-1.74,13.62-3.49,16.87-5.35l.72-.42V379.61l-2.22,1.47a38.32,38.32,0,0,1-11,4.79A41.76,41.76,0,0,1,2476,387.7c-10.57,0-18.38-2.85-23.23-8.46s-7.4-15.59-7.4-29.45V241.58ZM2095.86,387.71c-19.81,0-35.43-6.57-46.43-19.51s-16.69-31.54-16.69-55.1c0-24.3,5.61-43.32,16.69-56.55s26.48-19.82,46-19.82c18.92,0,34,6.37,44.77,19s16.35,31.51,16.35,56.1c0,24.88-5.17,44-15.38,56.79s-25.37,19.14-45.3,19.14m2.43-195.61c-37.8,0-67.81,11.07-89.22,32.91s-32.23,52.07-32.23,89.85c0,35.89,10.59,64.75,31.47,85.78s49.29,31.69,84.45,31.69c36.63,0,66-11.23,87.45-33.37s32.22-52.06,32.22-89c0-36.45-10.17-65.53-30.23-86.41s-48.31-31.49-83.91-31.49m-209.44,0c-25.71,0-47,6.57-63.22,19.54S1801,241.78,1801,262.48c0,10.76,1.79,20.32,5.31,28.43a57,57,0,0,0,16.31,21.3c7.23,6,18.39,12.21,33.17,18.56,12.43,5.11,21.7,9.44,27.59,12.85s9.84,6.7,12.15,10,3.38,7.59,3.38,13c0,15.39-11.53,22.89-35.26,22.89-8.8,0-18.84-1.84-29.84-5.47a111.92,111.92,0,0,1-30.55-15.49L1801,366.9v52.54l.84.39c7.72,3.56,17.45,6.57,28.93,8.93a155.05,155.05,0,0,0,30.9,3.58c27.9,0,50.36-6.61,66.75-19.65s24.86-30.64,24.86-52.06c0-15.45-4.5-28.69-13.37-39.38s-24.11-20.33-45.43-28.93c-17-6.82-27.88-12.48-32.37-16.82-4.33-4.2-6.53-10.14-6.53-17.66,0-6.66,2.72-12,8.29-16.33s13.42-6.55,23.22-6.55a94.91,94.91,0,0,1,27.65,4.25,88.45,88.45,0,0,1,24.15,11.2l2.23,1.52V202.09l-.86-.37c-6.25-2.68-14.5-5-24.52-6.84a149.58,149.58,0,0,0-26.88-2.78M1658.72,387.71c-19.8,0-35.42-6.57-46.43-19.51s-16.68-31.54-16.68-55.1c0-24.3,5.61-43.32,16.69-56.55s26.47-19.82,46-19.82c18.92,0,34,6.37,44.78,19s16.35,31.51,16.35,56.1c0,24.88-5.18,44-15.39,56.79s-25.37,19.14-45.3,19.14m2.44-195.61c-37.81,0-67.83,11.07-89.22,32.91s-32.24,52.07-32.24,89.85c0,35.9,10.6,64.75,31.48,85.78s49.29,31.69,84.45,31.69c36.63,0,66-11.23,87.45-33.37s32.22-52.06,32.22-89c0-36.45-10.17-65.53-30.24-86.41s-48.31-31.49-83.9-31.49m-204.3,45.21V197.62H1403V426.8h53.91V309.56c0-19.93,4.52-36.31,13.44-48.68,8.8-12.22,20.54-18.41,34.86-18.41a63.42,63.42,0,0,1,16.21,2.38c5.85,1.58,10.08,3.29,12.58,5.08l2.26,1.65V197.23l-.87-.38c-5-2.13-12.12-3.21-21.11-3.21a55.22,55.22,0,0,0-36.06,12.93c-9.11,7.53-15.7,17.86-20.74,30.74ZM1306.4,192.1c-24.73,0-46.79,5.3-65.55,15.75a106.11,106.11,0,0,0-43.24,44.47c-9.85,19-14.85,41.14-14.85,65.86,0,21.66,4.85,41.53,14.43,59A101.47,101.47,0,0,0,1237.53,418c17.16,9.5,37,14.32,58.94,14.32,25.62,0,47.49-5.12,65-15.22l.71-.41V367.31l-2.27,1.66a101.56,101.56,0,0,1-26.37,13.73c-9.53,3.33-18.22,5-25.83,5-21.16,0-38.14-6.62-50.47-19.67s-18.61-31.42-18.61-54.5c0-23.24,6.53-42.06,19.4-55.94s29.85-20.87,50.57-20.87c17.72,0,35,6,51.32,17.85l2.26,1.64v-52l-.73-.41c-6.15-3.44-14.53-6.29-24.94-8.44a149,149,0,0,0-30.14-3.23m-160.77,5.52h-53.91V426.8h53.91V197.62ZM1119.22,100a32.51,32.51,0,0,0-23,9,29.74,29.74,0,0,0-9.62,22.48,28.88,28.88,0,0,0,9.52,22,32.84,32.84,0,0,0,23.08,8.78,33.24,33.24,0,0,0,23.17-8.77,28.75,28.75,0,0,0,9.64-22.05,30.29,30.29,0,0,0-9.38-22.23c-6.22-6.14-14.1-9.25-23.44-9.25M984.71,180.71V426.8h55V107H963.58L866.79,344.54,772.87,107H693.62V426.8h51.7V180.69h1.78L846.28,426.8h39l97.64-246.09Z" transform="translate(0 -0.14)"/><path class="cls-1" d="M253.61,253.75H0V.14H253.61Z" transform="translate(0 -0.14)"/><path class="cls-1" d="M533.63,253.75H280V.14H533.63V253.75Z" transform="translate(0 -0.14)"/><path class="cls-1" d="M253.6,533.86H0V280.25H253.6Z" transform="translate(0 -0.14)"/><path class="cls-1" d="M533.63,533.86H280V280.25H533.63V533.86Z" transform="translate(0 -0.14)"/></svg>