<svg id="Capa_1" data-name="Capa 1" xmlns="http://www.w3.org/2000/svg" viewBox="0 0 2500 474.69"><path d="M1527.37,90v311.7h88V90Zm-692.1-.53v312H924V159.18l69.21.26c22.72,0,38.56,5.55,49.4,17.17,14,14.79,19.54,38.83,19.54,82.42V401.41h86.12V229.18c0-123.1-78.46-139.74-155.06-139.74Zm834,.53v311.7h142.65c76.07,0,100.9-12.67,127.58-40.94,19-19.81,31.18-63.66,31.18-111.47,0-43.86-10.31-82.95-28.53-107.25-32.23-43.59-79.25-52-149.52-52Zm87.17,67.62h37.78c54.94,0,90.34,24.57,90.34,88.5s-35.4,88.75-90.34,88.75h-37.78ZM1400.57,90l-73.44,247L1256.87,90h-95.1l100.38,311.7H1389L1490.38,90Zm611.26,311.7h88V90h-88ZM2258.56,90,2135.72,401.41h86.65l19.55-55.21H2387.2l18.5,54.95H2500L2376.11,90Zm57.06,56.79L2369,292.58H2260.67Z" transform="translate(0 -0.15)"/><path d="M267.59,141.74V99c4.23-.27,8.46-.53,12.68-.53,117.29-3.7,194.16,100.91,194.16,100.91s-82.95,115.17-172,115.17a109,109,0,0,1-34.6-5.55V179c45.7,5.55,54.94,25.62,82.15,71.32l61-51.25s-44.64-58.37-119.66-58.37a178.55,178.55,0,0,0-23.78,1.05m0-141.59V64.08l12.68-.79C443.26,57.74,549.71,197,549.71,197s-122,148.46-249.1,148.46a193.48,193.48,0,0,1-32.75-2.91v39.63A236.72,236.72,0,0,0,295.07,384c118.34,0,203.93-60.5,286.87-131.82,13.74,11.1,70,37.78,81.63,49.4-78.72,66-262.31,119.13-366.39,119.13a259.85,259.85,0,0,1-29.06-1.58v55.74h449.6V.15Zm0,308.8v33.82c-109.36-19.55-139.74-133.4-139.74-133.4s52.57-58.12,139.74-67.63v37h-.26C221.63,173.18,185.7,216,185.7,216s20.34,72.12,81.89,93M73.44,204.61S138.16,109,267.86,99V64.08C124.15,75.7,0,197.22,0,197.22s70.27,203.4,267.59,221.89v-37c-144.76-18-194.15-177.52-194.15-177.52Z" transform="translate(0 -0.15)"/></svg>