<svg id="Capa_1" data-name="Capa 1" xmlns="http://www.w3.org/2000/svg" viewBox="0 0 2498.87 324.85"><path class="cls-1" d="M1079.35,211.34h165.12L1157.16,70.88l-160.25,254H924l194.9-305.08A46.08,46.08,0,0,1,1157.16,0c15.15,0,29.27,7.19,37.49,19.26l195.68,305.59H1317.4L1283,268.1H1115.82l-36.47-56.76Zm757.55,56.75V3.08H1775V294a30.3,30.3,0,0,0,9,21.57,31.59,31.59,0,0,0,22.59,9.25h282.22l36.47-56.75H1836.9ZM813.05,220.58a108.76,108.76,0,1,0,0-217.51H542.3V324.85h61.87v-265H808.94a52.13,52.13,0,0,1,0,104.26l-174.47-.26,184.74,161h89.88L784.8,220.59h28.25ZM161.48,324.85C72.65,324.85.57,253,.57,164.1s72.08-161,160.91-161h187c88.85,0,160.88,72.16,160.88,161s-72,160.75-160.88,160.75ZM344.35,268.1a104.13,104.13,0,1,0,0-208.26H165.62a104.13,104.13,0,1,0,0,208.26H344.35ZM1519.5,324.85c-88.85,0-161-71.9-161-160.75s72.16-161,161-161h222.13l-36.21,56.76H1523.61A104.33,104.33,0,0,0,1419.35,164.1c0,57.51,46.73,104,104.26,104h223.15l-36.47,56.75Zm756.78-56.75a104,104,0,0,1-100.15-75.76h264.5l36.46-56.75h-301a104.29,104.29,0,0,1,100.15-75.75h181.56l36.71-56.77H2272.17c-88.85,0-161,72.16-161,161s72.16,160.75,161,160.75H2463l36.46-56.74Z" transform="translate(-0.57 0)"/></svg>