<svg id="Layer_1" data-name="Layer 1" xmlns="http://www.w3.org/2000/svg" viewBox="0 0 2499.1 325.62"><defs><style>.cls-1{fill:#fff;}</style></defs><g id="TESLA"><path class="cls-1" d="M2135.81,129.36V325.81h62.79v-131h229.64v131H2491V129.36H2135.81m55.61-63.69h242.2c34.09-6.28,58.31-36.77,65.48-65.48H2125.94c7.18,28.71,32.29,58.31,65.48,65.48M1944.74,325.81c31.4-13.46,48.44-36.78,55.62-63.69H1717.8V1.09h-63.69V325.81h290.63m-761.57-261h224.26c34.08-9.87,61.89-35.88,69.07-63.69H1121.28v192h290.63v67.28H1184.07c-35.88,9.86-66.38,34.08-81.63,65.48H1474.7V129.36H1184.07l-.9-64.58m-552.56.89H872.8C906.89,59.39,932,28.9,938.28.19h-374c7.17,28.71,32.29,58.31,66.38,65.48m0,128.28H872.8c34.09-6.28,59.21-36.78,65.48-65.49h-374c7.17,28.71,32.29,58.31,66.38,65.49m0,131.86H872.8c34.09-6.28,59.21-36.78,65.48-65.48h-374c7.17,28.7,32.29,59.2,66.38,65.48" transform="translate(0 -0.19)"/><path class="cls-1" d="M0,1.09C7.18,29.79,32.29,58.5,65.48,65.67H167.74l5.39,1.8V324.91h63.68V67.47l5.39-1.8H344.46c34.08-9,58.3-35.88,65.48-64.58V.19L0,1.09" transform="translate(0 -0.19)"/></g></svg>